<svg id="Layer_1" data-name="Layer 1" xmlns="http://www.w3.org/2000/svg" viewBox="0 0 183.53 80.22"><defs><style>.cls-1{fill:#b7b3b4;}.cls-2{fill:#f5b01b;}.cls-3{fill-rule:evenodd;}</style></defs><title>MDI SVG</title><path class="cls-1" d="M40,3.39S21.82-1.35,21.14,23.53s24.47,66.06,42.48,40c0,0-2.11,6.41-3.43,7.58s-11.3,5.29-11.3,5.29l-6.51-2.17S25.7,66.87,18.22,39.73s7-33.53,7-33.53L35.68,1.59S36.61,1.09,40,3.39Z" transform="translate(0)"/><path class="cls-2" d="M43.6.11S19.39,3.93,10.73,23.26c0,0,5.81-4.48,5.67-3.93-.17.71-.31,1.9-.31,1.9s-7,6-5.6,6.33,22.8-8.81,34.73-16.63a53.51,53.51,0,0,1-7.88,6.43C34,19.36,13.86,30.5,8.1,31.28c0,0-3,12,2.07,20.9,0,0,5.63-6.09,9-8.18l.67,2.28C13,54.6,15,54.05,20.9,52.38a76.52,76.52,0,0,0,16.6-7.12c15.43-8.37,23.77-13.88,28.17-17.12s10.56-7.52,10.56-7.52A95.33,95.33,0,0,1,60.61,34.47c-1.64,1.14-10.07,7.16-18.54,12C32.09,52.24,21.5,57,13.56,59.23c0,0,4.59,8.65,12.53,11.69a50.93,50.93,0,0,1,5.53-5l1.13,1.21c-.9.7-4.26,3.92-2.88,3.8s2.83-.14,6.5-2,15.16-8.29,19.57-11.08S76.69,44.8,76.4,45,45.34,67.94,31.55,72.93c0,0,25.77,11.15,41.72-19.37a8.62,8.62,0,0,1-.7,3.39c-1.15,3-10.3,24.86-36.52,23.17A38.56,38.56,0,0,1,4,58.91,40.66,40.66,0,0,1,4,23.77,40.11,40.11,0,0,1,43.6.11Z" transform="translate(0)"/><polygon class="cls-2" points="22.13 16.31 21.83 17.97 33.68 10.24 22.13 16.31"/><path class="cls-2" d="M45.32,26.78S25.59,41,24.81,42.3l-.63-1.8A143.21,143.21,0,0,1,45.32,26.78Z" transform="translate(0)"/><path class="cls-2" d="M36.62,63.71l-.87-1s.3-.43,5.67-4c2.52-1.67,5.06-3.21,5.09-3.22Z" transform="translate(0)"/><path class="cls-3" d="M50.27,27.5a1.36,1.36,0,0,0-.28.94c-.06,1.83-.2,3.65-.18,5.48,0,1.66-.06,3.33-.08,5,0,2.48-.06,5-.06,7.46,0,1.17.08,2.35.17,3.51.08,1,.23,2,.34,2.93a1.07,1.07,0,0,0,.84.93,4.56,4.56,0,0,0,.88.23c.62.08,1.26.15,1.88.18s1.28,0,1.9,0a13,13,0,0,1,2,.26.82.82,0,0,1,.62.41,3,3,0,0,1,.46,1.67,3.38,3.38,0,0,1-.4,1.11c-.08.2-.29.22-.49.22-.49,0-1,0-1.47,0l-2.61,0c-.73,0-1.46,0-2.18,0-1.76-.18-3.52-.11-5.27-.16-1.17,0-2.34.1-3.51.16s-2.58,0-3.88.06a2.43,2.43,0,0,1-.27,0,.79.79,0,0,1-.8-.67,10.82,10.82,0,0,1,0-1.61.74.74,0,0,1,.45-.59,8.94,8.94,0,0,1,2.3-.84,24.86,24.86,0,0,1,3.19-.41l.29,0c.67-.09.79-.18.91-.85a11.71,11.71,0,0,0,.26-1.95,24.83,24.83,0,0,0,.13-2.73,17.07,17.07,0,0,1,.07-1.75,12.6,12.6,0,0,1,.11-1.62,6.59,6.59,0,0,0,0-1.26c0-1.36.13-2.71.24-4.07,0-.37,0-.74,0-1.12A16.32,16.32,0,0,1,46,35.85v-.08c0-1.57.19-3.13.21-4.71,0-.34-.05-.69-.07-1a1.3,1.3,0,0,1,.07-.48A5.76,5.76,0,0,0,46.43,28c.11-1.88.22-3.75.31-5.63,0-.39,0-.79,0-1.2.06-1.23.12-2.48.19-3.72,0-.21,0-.42,0-.63,0-.65,0-1.32,0-2,0-.3,0-.49-.45-.6a6.35,6.35,0,0,0-1-.17c-.76-.06-1.53-.18-2.29-.29s-1.68-.18-2.52-.26l-.7-.07a1.16,1.16,0,0,1-1-.62,2.14,2.14,0,0,1,0-2.44.87.87,0,0,1,.48-.39,4.69,4.69,0,0,1,1-.2c.66,0,1.31.06,2,.09.18,0,.37.06.55.06h6.13a20.28,20.28,0,0,1,2.81-.16,6.54,6.54,0,0,1,1.46.17,1.09,1.09,0,0,1,.65.38,2.36,2.36,0,0,1,.34.44c.32.63.65,1.24.91,1.9s.63,1.41.94,2.12.53,1.2.8,1.79c.4.9.81,1.8,1.2,2.7.23.51.39,1.05.62,1.57s.52,1.1.77,1.66q1,2.2,2,4.43c.62,1.41,1.22,2.83,1.85,4.24.31.71.66,1.4,1,2.1.19.43.36.87.55,1.3q1,2.28,2,4.56c.49,1.06,1,2.12,1.48,3.19.13.29.22.61.34.91a1.72,1.72,0,0,0,.47.82c.24,0,.29-.16.37-.3.34-.72.7-1.44,1-2.16.41-.88.84-1.77,1.25-2.67.28-.62.5-1.26.77-1.88s.66-1.45,1-2.19c.23-.52.42-1,.62-1.56.3-.77.61-1.53.9-2.3s.52-1.5.79-2.25a4.76,4.76,0,0,1,.19-.53,23.91,23.91,0,0,0,1.25-2.9C78,24.16,78.52,23,79,21.92a2,2,0,0,0,.09-.26A21.64,21.64,0,0,1,80,19.3L80.44,18C81,16.5,81.5,15,82.09,13.42c.26-.66.46-1.33.7-2a4.74,4.74,0,0,1,.24-.58,1.35,1.35,0,0,1,1-.77A6.26,6.26,0,0,1,86.49,10a11.27,11.27,0,0,0,1.54.06c2.33,0,4.65,0,7,.06.84,0,1.68-.06,2.53-.06a.89.89,0,0,1,.92.79c0,.05,0,.1,0,.14a4.27,4.27,0,0,1,0,1.47.88.88,0,0,1-.43.69,3.77,3.77,0,0,1-.57.28,7.93,7.93,0,0,1-3,.59,7.12,7.12,0,0,0-2.53.5.77.77,0,0,0-.56.71A16.7,16.7,0,0,0,91.16,18c0,2.3,0,4.6,0,6.91s0,4.83.09,7.25c0,1.22.09,2.43.1,3.65,0,3.92,0,7.84,0,11.76,0,1.34,0,2.68,0,4,0,.44.08.88.13,1.32s.3.42.54.51c.49.18,1,.34,1.47.49a30.4,30.4,0,0,0,3.75.87h.07a1.35,1.35,0,0,1,1.26,1.57,3.11,3.11,0,0,1,0,.91,1,1,0,0,1-1,.77h-.49c-1.27,0-2.54,0-3.8,0-.61,0-1.21-.11-1.82-.13-2.14-.06-4.27-.18-6.41-.09-1.23,0-2.48.06-3.72.08H80.23c-.31,0-.6.08-.91.1-.72,0-1.45.06-2.17,0a1.86,1.86,0,0,1-.72-.24.69.69,0,0,1-.42-.62,11.75,11.75,0,0,1,0-1.19c.06-.9.4-1.1,1.19-1.33a6.8,6.8,0,0,1,.9-.17c.63-.09,1.25-.18,1.88-.25.36,0,.52-.16.53-.59,0-.68,0-1.36,0-2,0-2.4.08-4.79.11-7.19,0-.82,0-1.64,0-2.46,0-.63-.11-1.27-.06-1.89.15-2.23.05-4.46.06-6.69,0-1.43,0-2.86-.08-4.3,0-.23,0-.46,0-.7,0,0-.08-.09-.14-.13a.16.16,0,0,0-.12,0,1.66,1.66,0,0,0-.25.42c-.37.89-.76,1.77-1.1,2.66-.56,1.45-1.18,2.86-1.79,4.29-.55,1.27-1.08,2.54-1.53,3.85-.32.95-.69,1.89-1.07,2.82-.28.69-.62,1.37-.92,2-.15.34-.28.69-.41,1.05-.41,1.12-.8,2.25-1.22,3.36-.14.38-.37.71-.52,1.08-.42,1-.84,2-1.24,3.06s-.68,1.84-1,2.77c-.13.34-.23.71-.35,1.06a6.28,6.28,0,0,1-.25.73.82.82,0,0,1-.86.59,11.74,11.74,0,0,1-2-.13,13.45,13.45,0,0,0-1.66-.21,1.11,1.11,0,0,1-1-.78c-.07-.19-.17-.38-.26-.57l-.82-1.71s0,0,0-.06c-.37-1.32-1.08-2.5-1.57-3.76-.4-1-.92-2-1.35-3s-.91-2.2-1.38-3.3-.88-2-1.31-3c-.59-1.36-1.16-2.71-1.73-4.08-.34-.79-.69-1.59-1-2.38-.49-1.14-1.05-2.26-1.46-3.43s-1.06-2.29-1.48-3.48A1,1,0,0,0,50.27,27.5Z" transform="translate(0)"/><path class="cls-3" d="M110,31.55c0-1.9,0-3.79,0-5.7,0-2.16-.06-4.31-.08-6.47,0-.92,0-1.83,0-2.75,0-.54,0-1.08-.09-1.61a1.22,1.22,0,0,0-.72-1,10.57,10.57,0,0,0-2.46-.8c-.69-.16-1.38-.29-2.05-.5a2.16,2.16,0,0,1-1.38-1,2.85,2.85,0,0,1-.32-1.28.85.85,0,0,1,.43-.76,1.09,1.09,0,0,1,.5-.23,9.64,9.64,0,0,1,1.6-.23c1.29,0,2.59,0,3.88,0a12,12,0,0,1,1.88.2,23,23,0,0,0,3.71.29,4.32,4.32,0,0,1,1.19.1,1.3,1.3,0,0,0,.48,0,11.92,11.92,0,0,1,2.67,0,2,2,0,0,0,.42,0c.26,0,.51-.07.77-.08,1.33-.06,2.66-.08,4-.2,1.64-.13,3.28-.14,4.92-.13.82,0,1.64.08,2.46.13.16,0,.33,0,.49,0,.47,0,.94.08,1.4.12l.63,0,1.33.13.42,0c.72.08,1.44.21,2.15.25a14.45,14.45,0,0,1,4.21,1.1,19.6,19.6,0,0,1,3.66,1.62A23.85,23.85,0,0,1,148.32,14a16,16,0,0,1,2.16,1.79c.6.66,1.26,1.26,1.87,1.91a26.23,26.23,0,0,1,2.24,3c.25.36.46.76.7,1.14a21,21,0,0,1,1.27,2.5c.16.36.26.75.4,1.12a18.19,18.19,0,0,1,.86,3c.21,1,.33,2,.47,3.06a19.82,19.82,0,0,1,.17,2.17,18.6,18.6,0,0,1-.07,2.11,24,24,0,0,1-.7,4.44A35.73,35.73,0,0,1,156.51,44a20.47,20.47,0,0,1-1.69,3.25Q154,48.56,153,49.8a4.94,4.94,0,0,1-.56.64,6.8,6.8,0,0,0-.83.94,1.41,1.41,0,0,1-.35.34c-.32.29-.65.55-.95.85a18,18,0,0,1-3.27,2.4c-.83.5-1.74.82-2.6,1.23a2.74,2.74,0,0,1-.4.15c-1.35.37-2.7.76-4.06,1.11a21.31,21.31,0,0,1-2.83.52c-.58.06-1.18,0-1.76.05s-1.36.1-2,.11c-3.68,0-7.37,0-11.05,0-.52,0-1-.09-1.54-.11-.68,0-1.36-.07-2-.07l-7.53,0a17.45,17.45,0,0,1-2.8.12l-4.93,0c-.63,0-.83-.15-1-.74a2.51,2.51,0,0,1,0-1.73,1,1,0,0,1,.6-.65,10.54,10.54,0,0,1,2.36-.63,19.64,19.64,0,0,0,2.83-.55c1.23-.37,1.22-.49,1.37-1.65.18-1.4.23-2.8.31-4.2.16-2.92.07-5.82.11-8.73,0-1.22.05-2.44.05-3.66s0-2.72-.06-4.09Zm10.4,12.57h.08c0,.79,0,1.59,0,2.39.06,1.12.18,2.23.26,3.35a2.81,2.81,0,0,0,.74,1.85,10.29,10.29,0,0,0,1.6,1.36,4.39,4.39,0,0,0,1.05.55,17.13,17.13,0,0,0,3.21.73,17.36,17.36,0,0,0,2.39.08,3.15,3.15,0,0,0,1.24-.24c1.1-.47,2.25-.78,3.36-1.23a19.44,19.44,0,0,0,3.71-2c.27-.19.55-.36.81-.56a12.73,12.73,0,0,0,1.11-1,5.11,5.11,0,0,1,.71-.68,3.78,3.78,0,0,0,.49-.49c.25-.26.46-.53.69-.8a5.2,5.2,0,0,0,.49-.58,10.58,10.58,0,0,0,1.29-2.1,1.37,1.37,0,0,1,.19-.3,13.88,13.88,0,0,0,.94-1.79,11.08,11.08,0,0,0,.94-3A11.36,11.36,0,0,0,146,38.2c.05-.75.17-1.49.21-2.24.06-1.05,0-2.11,0-3.17a5.46,5.46,0,0,0,0-.56c-.1-.69-.19-1.38-.31-2.08a10.22,10.22,0,0,0-.22-1.23c-.26-.93-.58-1.84-.84-2.76a20.52,20.52,0,0,0-1.54-3.37,3,3,0,0,0-.28-.41,20.29,20.29,0,0,0-1.57-1.9c-.61-.67-1.29-1.28-1.93-1.93a12.88,12.88,0,0,0-1.57-1.18,11.54,11.54,0,0,0-2-1.18c-.56-.27-1.12-.58-1.69-.83s-1.14-.44-1.72-.63-1.12-.3-1.67-.51a14,14,0,0,0-4.73-.93,24.79,24.79,0,0,0-3.66.16,12.79,12.79,0,0,0-1.58.35.73.73,0,0,0-.59.69c0,.57-.08,1.12-.07,1.68,0,1,.1,2,.12,3,0,1.88,0,3.75,0,5.63,0,5.75-.09,11.5.09,17.25C120.46,42.75,120.44,43.43,120.44,44.12Z" transform="translate(0)"/><path class="cls-3" d="M176.75,53.17l.82.26c.49.13,1,.27,1.5.36a10.46,10.46,0,0,0,1.67.22,4.37,4.37,0,0,1,2.06.61,1.11,1.11,0,0,1,.61.82,8.3,8.3,0,0,1,.09,1.11,1,1,0,0,1-1.09,1.12c-.35,0-.71,0-1,0-1.18,0-2.35.07-3.52.06-1.58,0-3.16-.07-4.73-.07-3.94,0-7.89,0-11.83,0a4,4,0,0,1-.49,0,1,1,0,0,1-1-.93c0-.35-.06-.7-.07-1a1,1,0,0,1,.82-1.09,7.08,7.08,0,0,1,2.13-.43,15,15,0,0,0,2.5-.34,3.39,3.39,0,0,0,.73-.27,1,1,0,0,0,.64-.77,9.21,9.21,0,0,0,.17-1,19.82,19.82,0,0,0,.17-2.17c0-.73.09-1.46.09-2.18,0-3.9,0-7.8,0-11.7,0-1.28-.08-2.57-.08-3.86,0-2.78,0-5.55,0-8.31,0-.7-.06-1.39,0-2.09.08-1.32,0-2.63,0-3.95,0-1-.11-2-.17-2.95a.73.73,0,0,0-.33-.58,2.26,2.26,0,0,0-1.11-.4c-.41-.07-.84-.09-1.26-.13-.89-.09-1.77-.16-2.65-.29a1.72,1.72,0,0,1-1.49-1.33,4.06,4.06,0,0,1-.13-1,.86.86,0,0,1,.8-.9,4,4,0,0,1,.77-.09,19.81,19.81,0,0,1,2.18,0c1.22.11,2.44.08,3.65.1a2.84,2.84,0,0,1,.42.05,2.09,2.09,0,0,0,.42,0,18,18,0,0,1,2.32,0c1.42,0,2.86,0,4.29,0,1.21,0,2.45,0,3.66-.07,1.38-.1,2.76-.06,4.13-.17a1.46,1.46,0,0,1,.55.06.76.76,0,0,1,.63.75,7.57,7.57,0,0,1,0,1.26,1.1,1.1,0,0,1-.92,1c-.72.19-1.48.22-2.21.34s-1.71.26-2.57.42a4.28,4.28,0,0,0-.72.28.83.83,0,0,0-.52.83c0,.57,0,1.13,0,1.69s-.08,1.41-.11,2.11c-.14,2.23-.05,4.46-.06,6.69,0,2.06,0,4.13.06,6.19.19,4.2,0,8.4.09,12.6a1.4,1.4,0,0,1,0,.29,24.57,24.57,0,0,0-.1,3.43c-.06,1.29.13,2.58.15,3.87C176.58,52.18,176.69,52.66,176.75,53.17Z" transform="translate(0)"/></svg>